<?xml version="1.0" standalone="no"?>
<!DOCTYPE svg PUBLIC "-//W3C//DTD SVG 1.1//EN" "http://www.w3.org/Graphics/SVG/1.1/DTD/svg11.dtd">
<svg xmlns="http://www.w3.org/2000/svg" version="1.1">
  <path fill-rule="evenodd" fill="#333" d="M 0,0 l 14,0 l 0,24 l -14,0 l 0,-24 m 4,0 m 0,4 l 6,0 l 0,16 l -6,0 l 0,-16 m 10,-4 m 6,0 l 14,0 l 0,24 l -4,0 l 0,-10 l -6,0 l 0,10 l -4,0 l 0,-24 m 4,0 m 0,4 l 6,0 l 0,6 l -6,0 l 0,-6 m 10,-4 m 6,0 l 4,0 l 0,20 l 6,0 l 0,-20 l 4,0 l 0,24 l -14,0 l 0,-24 m 14,0 m 6,0 l 4,0 l 0,24 l -4,0 l 0,-24 m 4,0 m 6,0 l 14,0 l 0,24 l -14,0 l 0,-24 m 4,0 m 0,4 l 6,0 l 0,16 l -6,0 l 0,-16 m 10,-4 m 6,0 l 14,0 l 0,9 l -4,0 l 0,-5 l -6,0 l 0,16 l 6,0 l 0,-5 l 4,0 l 0,9 l -14,0 l 0,-24 m 14,0 m 6,0 l 4,0 l 0,10 l 6,0 l 0,-10 l 4,0 l 0,24 l -4,0 l 0,-10 l -6,0 l 0,10 l -4,0 l 0,-24 m 14,0 m 6,0 l 14,0 l 0,24 l -4,0 l 0,-10 l -6,0 l 0,10 l -4,0 l 0,-24 m 4,0 m 0,4 l 6,0 l 0,6 l -6,0 l 0,-6 m 10,-4 m 6,0 l 22,0 l 0,24 l -4,0 l 0,-20 l -5,0 l 0,20 l -4,0 l 0,-20 l -5,0 l 0,20 l -4,0 l 0,-24 m 22,0 m 6,0 l 14,0 l 0,24 l -14,0 l 0,-24 m 4,0 m 0,4 l 6,0 l 0,6 l -6,0 l 0,-6 m 0,0 m 0,10 l 6,0 l 0,6 l -6,0 l 0,-6 m 10,-14 m 6,0 l 12,0 l 0,4 l -8,0 l 0,6 l 8,0 l 0,4 l -8,0 l 0,6 l 8,0 l 0,4 l -12,0 l 0,-24 m 12,0 m 6,0 l 14,0 l 0,24 l -4,0 l 0,-10 l -6,0 l 0,10 l -4,0 l 0,-24 m 4,0 m 0,4 l 6,0 l 0,6 l -6,0 l 0,-6 m 10,-4 m 6,0 l 12,0 l 0,4 l -8,0 l 0,6 l 8,0 l 0,14 l -12,0 l 0,-4 l 8,0 l 0,-6 l -8,0 l 0,-14 m 12,0 m 6,0 l 14,0 l 0,24 l -14,0 l 0,-24 m 4,0 m 0,4 l 6,0 l 0,16 l -6,0 l 0,-16 m 10,-4 m 6,0 l 12,0 l 0,4 l -8,0 l 0,6 l 8,0 l 0,4 l -8,0 l 0,6 l 8,0 l 0,4 l -12,0 l 0,-24 m 12,0 m 6,0 l 12,0 l 0,4 l -8,0 l 0,6 l 8,0 l 0,14 l -12,0 l 0,-4 l 8,0 l 0,-6 l -8,0 l 0,-14 m 12,0 m 6,0 l 4,0 l 0,24 l -4,0 l 0,-24 m 4,0 m 6,0 l 14,0 l 0,4 l -10,0 l 0,16 l 6,0 l 0,-10 l 4,0 l 0,14 l -14,0 l 0,-24 m 14,0 m 6,0 l 14,0 l 0,24 l -4,0 l 0,-20 l -6,0 l 0,20 l -4,0 l 0,-24 m 14,0 M 1,1 l 12,0 l 0,22 l -12,0 l 0,-22 m 2,0 m 0,2 l 8,0 l 0,18 l -8,0 l 0,-18 m 10,-2 m 8,0 l 12,0 l 0,22 l -2,0 l 0,-10 l -8,0 l 0,10 l -2,0 l 0,-22 m 2,0 m 0,2 l 8,0 l 0,8 l -8,0 l 0,-8 m 10,-2 m 8,0 l 2,0 l 0,20 l 8,0 l 0,-20 l 2,0 l 0,22 l -12,0 l 0,-22 m 12,0 m 8,0 l 2,0 l 0,22 l -2,0 l 0,-22 m 2,0 m 8,0 l 12,0 l 0,22 l -12,0 l 0,-22 m 2,0 m 0,2 l 8,0 l 0,18 l -8,0 l 0,-18 m 10,-2 m 8,0 l 12,0 l 0,7 l -2,0 l 0,-5 l -8,0 l 0,18 l 8,0 l 0,-5 l 2,0 l 0,7 l -12,0 l 0,-22 m 12,0 m 8,0 l 2,0 l 0,10 l 8,0 l 0,-10 l 2,0 l 0,22 l -2,0 l 0,-10 l -8,0 l 0,10 l -2,0 l 0,-22 m 12,0 m 8,0 l 12,0 l 0,22 l -2,0 l 0,-10 l -8,0 l 0,10 l -2,0 l 0,-22 m 2,0 m 0,2 l 8,0 l 0,8 l -8,0 l 0,-8 m 10,-2 m 8,0 l 20,0 l 0,22 l -2,0 l 0,-20 l -7,0 l 0,20 l -2,0 l 0,-20 l -7,0 l 0,20 l -2,0 l 0,-22 m 20,0 m 8,0 l 12,0 l 0,22 l -12,0 l 0,-22 m 2,0 m 0,2 l 8,0 l 0,8 l -8,0 l 0,-8 m 0,0 m 0,10 l 8,0 l 0,8 l -8,0 l 0,-8 m 10,-12 m 8,0 l 10,0 l 0,2 l -8,0 l 0,8 l 8,0 l 0,2 l -8,0 l 0,8 l 8,0 l 0,2 l -10,0 l 0,-22 m 10,0 m 8,0 l 12,0 l 0,22 l -2,0 l 0,-10 l -8,0 l 0,10 l -2,0 l 0,-22 m 2,0 m 0,2 l 8,0 l 0,8 l -8,0 l 0,-8 m 10,-2 m 8,0 l 10,0 l 0,2 l -8,0 l 0,8 l 8,0 l 0,12 l -10,0 l 0,-2 l 8,0 l 0,-8 l -8,0 l 0,-12 m 10,0 m 8,0 l 12,0 l 0,22 l -12,0 l 0,-22 m 2,0 m 0,2 l 8,0 l 0,18 l -8,0 l 0,-18 m 10,-2 m 8,0 l 10,0 l 0,2 l -8,0 l 0,8 l 8,0 l 0,2 l -8,0 l 0,8 l 8,0 l 0,2 l -10,0 l 0,-22 m 10,0 m 8,0 l 10,0 l 0,2 l -8,0 l 0,8 l 8,0 l 0,12 l -10,0 l 0,-2 l 8,0 l 0,-8 l -8,0 l 0,-12 m 10,0 m 8,0 l 2,0 l 0,22 l -2,0 l 0,-22 m 2,0 m 8,0 l 12,0 l 0,2 l -10,0 l 0,18 l 8,0 l 0,-10 l 2,0 l 0,12 l -12,0 l 0,-22 m 12,0 m 8,0 l 12,0 l 0,22 l -2,0 l 0,-20 l -8,0 l 0,20 l -2,0 l 0,-22 m 12,0" />
</svg>
