<?xml version="1.0" standalone="no"?>
<!DOCTYPE svg PUBLIC "-//W3C//DTD SVG 1.1//EN" "http://www.w3.org/Graphics/SVG/1.1/DTD/svg11.dtd">
<svg xmlns="http://www.w3.org/2000/svg" version="1.1" width="16" height="16">
  <path fill-rule="evenodd" fill="#963" d="m 2,8 l 0,2 l 1,0 l 0,3 l 1,0 l 0,1 l 1,0 l 0,1 l 1,0 l 0,1 l 4,0 l 0,-1 l 1,0 l 0,-1 l 1,0 l 0,-1 l 1,0 l 0,-3 l 1,0 l 0,-2 l -12,0" />
  <path fill-rule="evenodd" fill="#edb" d="m 3,4 l 0,6 l 1,0 l 0,3 l 1,0 l 0,1 l 1,0 l 0,1 l 4,0 l 0,-1 l 1,0 l 0,-1 l 1,0 l 0,-3 l 1,0 l 0,-6 l -10,0" />
  <path fill-rule="evenodd" fill="#963" d="m 5,8 l 2,0 l 0,1 l -2,0 l 0,-1 m 4,0 l 2,0 l 0,1 l -2,0 l 0,-1 m -2,3 l 2,0 l 0,1 l -2,0 l 0,-1" />
  <path fill-rule="evenodd" fill="#432" d="m 6,0 l 4,0 l 0,1 l 2,0 l 0,1 l 1,0 l 0,3 l 1,0 l 0,4 l -1,0 l 0,-2 l -1,0 l 0,-1 l -2,0 l 0,-1 l -4,0 l 0,1 l -2,0 l 0,1 l -1,0 l 0,2 l -1,0 l 0,-4 l 1,0 l 0,-3 l 1,0 l 0,-1 l 2,0 l 0,-1" />
  <path fill-rule="evenodd" fill="#ccc" d="m 6,1 l 4,0 l 0,4 l 4,0 l 0,-1 l -12,0 l 0,1 l 4,0 l 0,-4 m -2,1 l 8,0 l 0,4 l 2,0 l 0,1 l -1,0 l 0,-4 l -10,0 l 0,4 l -1,0 l 0,-1 l 2,0 l 0,-4" />
</svg>
