<?xml version="1.0" standalone="no"?>
<!DOCTYPE svg PUBLIC "-//W3C//DTD SVG 1.1//EN" "http://www.w3.org/Graphics/SVG/1.1/DTD/svg11.dtd">
<svg xmlns="http://www.w3.org/2000/svg" version="1.1" width="16" height="16">
  <path fill="#391" d="m 5,0 l 6,0 l 0,1 l 1,0 l 0,1 l 1,0 l 0,1 l 1,0 l 0,-1 l 1,0 l 0,-1 l 1,0 l 0,7 l -7,0 l 0,-1 l 1,0 l 0,-1 l 1,0 l 0,-1 l -1,0 l 0,-1 l -4,0 l 0,1 l -1,0 l 0,1 l -1,0 l 0,4 l 1,0 l 0,1 l 1,0 l 0,1 l 4,0 l 0,-1 l 1,0 l 0,-1 l 1,0 l 0,1 l 1,0 l 0,1 l 1,0 l 0,1 l -1,0 l 0,1 l -1,0 l 0,1 l -1,0 l 0,1 l -6,0 l 0,-1 l -1,0 l 0,-1 l -1,0 l 0,-1 l -1,0 l 0,-1 l -1,0 l 0,-1 l -1,0 l 0,-6 l 1,0 l 0,-1 l 1,0 l 0,-1 l 1,0 l 0,-1 l 1,0 l 0,-1 l 1,0 l 0,-1" />
  <path fill="#6c4" d="m 5,1 l 6,0 l 0,1 l 1,0 l 0,1 l 1,0 l 0,1 l 1,0 l 0,-1 l 1,0 l 0,4 l -4,0 l 0,-1 l 1,0 l 0,-1 l -1,0 l 0,-1 l -1,0 l 0,-1 l -4,0 l 0,1 l -1,0 l 0,1 l -1,0 l 0,1 l -1,0 l 0,4 l 1,0 l 0,1 l 1,0 l 0,1 l 1,0 l 0,1 l 4,0 l 0,-1 l 1,0 l 0,-1 l 1,0 l 0,1 l 1,0 l 0,1 l -1,0 l 0,1 l -1,0 l 0,1 l -6,0 l 0,-1 l -1,0 l 0,-1 l -1,0 l 0,-1 l -1,0 l 0,-1 l -1,0 l 0,-6 l 1,0 l 0,-1 l 1,0 l 0,-1 l 1,0 l 0,-1 l 1,0 l 0,-1" />
</svg>
