<?xml version="1.0" standalone="no"?>
<!DOCTYPE svg PUBLIC "-//W3C//DTD SVG 1.1//EN"
  "http://www.w3.org/Graphics/SVG/1.1/DTD/svg11.dtd">

<svg xmlns="http://www.w3.org/2000/svg" version="1.1" width="16" height="16">
  <rect fill="#da5" x="0" y="1" width="16" height="15" />
  <rect fill="#fff" x="1" y="1" width="14" height="14" />
  <path fill="#b00" d="M 1,1 l 2,0 l 0,1 l 1,0 l 0,-1 l 2,0 l 0,1 l 1,0 l 0,-1
                       l 2,0 l 0,1 l 1,0 l 0,-1 l 2,0 l 0,1 l 1,0 l 0,-1 l 2,0
                       l 0,3 l -14,0 l 0,-3" />
  <path fill="#333" d="M 3,0 l 1,0 l 0,1 l -1,0 l 0,-1
                       m 3,0 l 1,0 l 0,1 l -1,0 l 0,-1
                       m 3,0 l 1,0 l 0,1 l -1,0 l 0,-1
                       m 3,0 l 1,0 l 0,1 l -1,0 l 0,-1" />
  <path fill="#000" d="M 4,6 l 0,1 l 3,0 l 0,2 l -3,0 l 0,1 l 3,0
                       l 0,2 l -3,0 l 0,1 l 4,0 l 0,-7 l -4,0
                       m 6,0 l 0,1 l 1,0 l 0,6 l 1,0 l 0,-7 l -2,0" />
</svg>
