<?xml version="1.0" standalone="no"?>
<!DOCTYPE svg PUBLIC "-//W3C//DTD SVG 1.1//EN"
  "http://www.w3.org/Graphics/SVG/1.1/DTD/svg11.dtd">

<svg xmlns="http://www.w3.org/2000/svg" version="1.1" width="16" height="16">
  <path fill="#27c" d="M 0,0 l 16,0 l 0,2 l -1,0 l 0,6 l -1,0 l 0,6 l -1,0
                       l 0,1 l -2,0 l 0,1 l -6,0 l 0,-1 l -2,0 l 0,-1 l -1,0
                       l 0,-6 l -1,0 l 0,-6 l -1,0 l 0,-2" />
  <rect fill="#ee7" x="4" y="1" width="8" height="7" />
  <path fill="#a7a" d="M 6,2 l 1,0 l 0,5 l 2,0 l 0,-1 l -3,0 l 0,-2 l 4,0
                       l 0,2 l -1,0 l 0,-4 l 1,0 l 0,1 l -4,0 l 0,-1" />
  <rect fill="#fff" x="7" y="0" width="2" height="3" opacity="0.25" />
</svg>
