<?xml version="1.0" standalone="no"?>
<!DOCTYPE svg PUBLIC "-//W3C//DTD SVG 1.1//EN" "http://www.w3.org/Graphics/SVG/1.1/DTD/svg11.dtd">
<svg xmlns="http://www.w3.org/2000/svg" version="1.1">
  <path fill="#edb" d="m 3,4 h 10 v 6 h -1 v 3 h -1 v 1 h -1 v 1 h -4 v -1 h -1 v -1 h -1 v -3 h -1 v -6" />
  <path fill="#963" d="m 2,9 h 1 v 4 h 2 v 2 h 6 v -2 h 2 v -4 h 1 v 1 h -2 v 4 h -2 v 2 h -4 v -2 h -2 v -4 h -2 v -1 m 3,-1 h 2 v 1 h -2 v -1 m 2,3 h 2 v 1 h -2 v -1 m 2,-3 h 2 v 1 h -2 v -1" />
  <path fill="#432" d="m 6,0 h 4 v 2 h 3 v 1 h -1 v -2 h -8 v 2 h -1 v -1 h 3 v -2 m 0,2 h 4 v 2 h 3 v 2 h 1 v -1 h -2 v -2 h -8 v 2 h -2 v 1 h 1 v -2 h 3 v -2 m 0,2 h 4 v 2 h 3 v 3 h 1 v -2 h -2 v -2 h -8 v 2 h -2 v 2 h 1 v -3 h 3 v -2" />
  <path fill="#ccc" d="m 6,1 h 4 v 2 h 3 v 1 h -1 v -2 h -8 v 2 h -1 v -1 h 3 v -2 m 0,2 h 4 v 2 h 3 v 2 h 1 v -1 h -2 v -2 h -8 v 2 h -2 v 1 h 1 v -2 h 3 v -2" />
</svg>
