<?xml version="1.0" standalone="no"?>
<!DOCTYPE svg PUBLIC "-//W3C//DTD SVG 1.1//EN" "http://www.w3.org/Graphics/SVG/1.1/DTD/svg11.dtd">
<svg xmlns="http://www.w3.org/2000/svg" version="1.1" width="16" height="16">
  <path fill-rule="evenodd" fill="#27c" d="m 0,0 m 0,0 l 0,2 l 1,0 l 0,6 l 1,0 l 0,6 l 1,0 l 0,1 l 2,0 l 0,1 l 6,0 l 0,-1 l 2,0 l 0,-1 l 1,0 l 0,-6 l 1,0 l 0,-6 l 1,0 l 0,-2 l -16,0" />
  <path fill-rule="evenodd" fill="#ee7" d="m 4,0 m 0,1 l 8,0 l 0,7 l -8,0 l 0,-7" />
  <path fill-rule="evenodd" fill="#a7a" d="m 6,0 m 0,2 l 1,0 l 0,5 l 2,0 l 0,-5 l 1,0 l 0,1 l -4,0 l 0,-1 m 0,0 m 0,2 l 4,0 l 0,2 l -4,0 l 0,-2" />
  <path fill-rule="evenodd" fill="#fff" opacity="0.25" d="m 7,0 m 0,0 l 2,0 l 0,3 l -2,0 l 0,-3" />
</svg>
