<?xml version="1.0" standalone="no"?>
<!DOCTYPE svg PUBLIC "-//W3C//DTD SVG 1.1//EN" "http://www.w3.org/Graphics/SVG/1.1/DTD/svg11.dtd">
<svg xmlns="http://www.w3.org/2000/svg" version="1.1" width="16" height="16">
  <path fill-rule="evenodd" fill="#963" d="m 0,0 m 0,2 l 16,0 l 0,12 l -16,0 l 0,-12" />
  <path fill-rule="evenodd" fill="#feb" d="m 2,0 m 0,3 l 12,0 l 0,1 l 1,0 l 0,9 l -14,0 l 0,-9 l 1,0 l 0,-1" />
  <path fill-rule="evenodd" fill="#741" d="m 2,0 m 0,4 l 1,0 l 0,2 l 2,0 l 0,2 l 2,0 l 0,2 l 2,0 l 0,-2 l 2,0 l 0,-2 l 2,0 l 0,-2 l 1,0 l 0,1 l -2,0 l 0,2 l -2,0 l 0,2 l -4,0 l 0,-2 l -2,0 l 0,-2 l -2,0 l 0,-1" />
  <path fill-rule="evenodd" fill="#b85" d="m 6,0 m 0,8 l -1,0 l 0,2 l -2,0 l 0,2 l -2,0 l 0,1 l 1,0 l 0,-2 l 2,0 l 0,-2 l 2,0 l 0,-1 m 4,0 m 0,0 l 1,0 l 0,2 l 2,0 l 0,2 l 2,0 l 0,1 l -1,0 l 0,-2 l -2,0 l 0,-2 l -2,0 l 0,-1" />
</svg>
