<?xml version="1.0" standalone="no"?>
<!DOCTYPE svg PUBLIC "-//W3C//DTD SVG 1.1//EN" "http://www.w3.org/Graphics/SVG/1.1/DTD/svg11.dtd">
<svg xmlns="http://www.w3.org/2000/svg" version="1.1">
  <path fill="#391" d="m 5,0 h 6 v 1 h 1 v 1 h 1 v 1 h 1 v -1 h 1 v -1 h 1 v 7 h -7 v -1 h 1 v -1 h 1 v -1 h -1 v -1 h -4 v 1 h -1 v 1 h -1 v 4 h 1 v 1 h 1 v 1 h 4 v -1 h 1 v -1 h 1 v 1 h 1 v 1 h 1 v 1 h -1 v 1 h -1 v 1 h -1 v 1 h -6 v -1 h -1 v -1 h -1 v -1 h -1 v -1 h -1 v -1 h -1 v -6 h 1 v -1 h 1 v -1 h 1 v -1 h 1 v -1 h 1 v -1" />
  <path fill="#6c4" d="m 5,1 h 6 v 1 h 1 v 1 h 1 v 1 h 1 v -1 h 1 v 4 h -4 v -1 h 1 v -1 h -1 v -1 h -1 v -1 h -4 v 1 h -1 v 1 h -1 v 1 h -1 v 4 h 1 v 1 h 1 v 1 h 1 v 1 h 4 v -1 h 1 v -1 h 1 v 1 h 1 v 1 h -1 v 1 h -1 v 1 h -6 v -1 h -1 v -1 h -1 v -1 h -1 v -1 h -1 v -6 h 1 v -1 h 1 v -1 h 1 v -1 h 1 v -1" />
</svg>
