<?xml version="1.0" standalone="no"?>
<svg xmlns="http://www.w3.org/2000/svg" version="1.1" width="16" height="16">
  <path fill="#963" d="m 0,2 h 16 v 12 h -16 v -12" />
  <path fill="#feb" d="m 2,3 h 12 v 1 h 1 v 9 h -14 v -9 h 1 v -1" />
  <path fill="#741" d="m 2,4 h 1 v 2 h 2 v 2 h 2 v 2 h 2 v -2 h 2 v -2 h 2 v -2 h 1 v 1 h -2 v 2 h -2 v 2 h -4 v -2 h -2 v -2 h -2 v -1" />
  <path fill="#b85" d="m 6,8 h -1 v 2 h -2 v 2 h -2 v 1 h 1 v -2 h 2 v -2 h 2 v -1 m 4,0 h 1 v 2 h 2 v 2 h 2 v 1 h -1 v -2 h -2 v -2 h -2 v -1" />
</svg>
