<?xml version="1.0" standalone="no"?>
<svg xmlns="http://www.w3.org/2000/svg" version="1.1">
  <path d="M 0,0 h 14 v 24 h -14 v -24 m 4,4 h 6 v 16 h -6 v -16 m 16,-4 h 14 v 24 h -4 v -10 h -6 v 10 h -4 v -24 m 4,4 h 6 v 6 h -6 v -6 m 16,-4 h 4 v 20 h 6 v -20 h 4 v 24 h -14 v -24 m 20,0 h 4 v 24 h -4 v -24 m 10,0 h 14 v 24 h -14 v -24 m 4,4 h 6 v 16 h -6 v -16 m 16,-4 h 14 v 9 h -4 v -5 h -6 v 16 h 6 v -5 h 4 v 9 h -14 v -24 m 20,0 h 4 v 10 h 6 v -10 h 4 v 24 h -4 v -10 h -6 v 10 h -4 v -24 m 20,0 h 14 v 24 h -4 v -10 h -6 v 10 h -4 v -24 m 4,4 h 6 v 6 h -6 v -6 m 16,-4 h 22 v 24 h -4 v -20 h -5 v 20 h -4 v -20 h -5 v 20 h -4 v -24 m 28,0 h 14 v 24 h -14 v -24 m 4,4 h 6 v 6 h -6 v -6 m 0,10 h 6 v 6 h -6 v -6 m 16,-14 h 12 v 4 h -8 v 6 h 8 v 4 h -8 v 6 h 8 v 4 h -12 v -24 m 18,0 h 14 v 24 h -4 v -10 h -6 v 10 h -4 v -24 m 4,4 h 6 v 6 h -6 v -6 m 16,-4 h 12 v 4 h -8 v 6 h 8 v 14 h -12 v -4 h 8 v -6 h -8 v -14 m 18,0 h 14 v 24 h -14 v -24 m 4,4 h 6 v 16 h -6 v -16 m 16,-4 h 12 v 4 h -8 v 6 h 8 v 4 h -8 v 6 h 8 v 4 h -12 v -24 m 18,0 h 12 v 4 h -8 v 6 h 8 v 14 h -12 v -4 h 8 v -6 h -8 v -14 m 18,0 h 4 v 24 h -4 v -24 m 10,0 h 14 v 4 h -10 v 16 h 6 v -10 h 4 v 14 h -14 v -24 m 20,0 h 14 v 24 h -4 v -20 h -6 v 20 h -4 v -24 m 14,0" fill="#000" fill-rule="evenodd" />
</svg>
