<?xml version="1.0" standalone="no"?>
<svg xmlns="http://www.w3.org/2000/svg" version="1.1">
  <path d="M 0,0 h 14 v 1 h -13 v 23 h -1 v -24 m 4,20 h 6 v -16 h 1 v 17 h -7 v -1 m 16,-20 h 14 v 1 h -13 v 23 h -1 v -24 m 4,10 h 6 v -6 h 1 v 7 h -7 v -1 m 6,4 h 1 v 10 h -1 v -10 m 10,-14 h 4 v 1 h -3 v 23 h -1 v -24 m 4,20 h 6 v -20 h 4 v 1 h -3 v 20 h -7 v -1 m 16,-20 h 4 v 1 h -3 v 23 h -1 v -24 m 10,0 h 14 v 1 h -13 v 23 h -1 v -24 m 4,20 h 6 v -16 h 1 v 17 h -7 v -1 m 16,-20 h 14 v 1 h -13 v 23 h -1 v -24 m 4,20 h 6 v -5 h 4 v 1 h -3 v 5 h -7 v -1 m 6,-16 h 1 v 5 h -1 v -5 m 10,-4 h 4 v 1 h -3 v 23 h -1 v -24 m 4,10 h 6 v -10 h 4 v 1 h -3 v 10 h -7 v -1 m 6,4 h 1 v 10 h -1 v -10 m 10,-14 h 14 v 1 h -13 v 23 h -1 v -24 m 4,10 h 6 v -6 h 1 v 7 h -7 v -1 m 6,4 h 1 v 10 h -1 v -10 m 10,-14 h 22 v 1 h -21 v 23 h -1 v -23 m 9,3 h 1 v 20 h -1 v -20 m 9,0 h 1 v 20 h -1 v -20 m 10,-4 h 14 v 1 h -13 v 23 h -1 v -24 m 4,10 h 6 v -6 h 1 v 7 h -7 v -1 m 0,10 h 6 v -6 h 1 v 7 h -7 v -1 m 16,-20 h 12 v 1 h -11 v 23 h -1 v -24 m 4,10 h 8 v 1 h -8 v -1 m 0,10 h 8 v 1 h -8 v -1 m 14,-20 h 14 v 1 h -13 v 23 h -1 v -24 m 4,10 h 6 v -6 h 1 v 7 h -7 v -1 m 6,4 h 1 v 10 h -1 v -10 m 10,-14 h 12 v 1 h -11 v 13 h -1 v -14 m 0,20 h 8 v -6 h 1 v 7 h -8 v 3 h -1 v -4 m 4,-10 h 8 v 1 h -8 v -1 m 14,-10 h 14 v 1 h -13 v 23 h -1 v -24 m 4,20 h 6 v -16 h 1 v 17 h -7 v -1 m 16,-20 h 12 v 1 h -11 v 23 h -1 v -24 m 4,10 h 8 v 1 h -8 v -1 m 0,10 h 8 v 1 h -8 v -1 m 14,-20 h 12 v 1 h -11 v 13 h -1 v -14 m 0,20 h 8 v -6 h 1 v 7 h -8 v 3 h -1 v -4 m 4,-10 h 8 v 1 h -8 v -1 m 14,-10 h 4 v 1 h -3 v 23 h -1 v -24 m 10,0 h 14 v 1 h -13 v 23 h -1 v -24 m 4,20 h 6 v -10 h 4 v 1 h -3 v 10 h -7 v -1 m 16,-20 h 14 v 1 h -13 v 23 h -1 v -24 m 10,4 h 1 v 20 h -1 v -20 m 4,-4" fill="#999" />
  <path d="M 1,23 h 12 v -22 h 1 v 23 h -13 v -1 m 2,-20 h 8 v 1 h -7 v 17 h -1 v -18 m 18,20 h 2 v -10 h 8 v 1 h -7 v 10 h -3 v -1 m 2,-20 h 8 v 1 h -7 v 7 h -1 v -8 m 8,20 h 2 v -22 h 1 v 23 h -3 v -1 m 10,0 h 12 v -22 h 1 v 23 h -13 v -1 m 2,-22 h 1 v 20 h -1 v -20 m 18,22 h 2 v -22 h 1 v 23 h -3 v -1 m 10,0 h 12 v -22 h 1 v 23 h -13 v -1 m 2,-20 h 8 v 1 h -7 v 17 h -1 v -18 m 18,20 h 12 v -7 h 1 v 8 h -13 v -1 m 2,-20 h 8 v 1 h -7 v 17 h -1 v -18 m 10,-2 h 1 v 8 h -3 v -1 h 2 v -7 m 8,22 h 2 v -10 h 8 v 1 h -7 v 10 h -3 v -1 m 2,-22 h 1 v 10 h -1 v -10 m 10,0 h 1 v 23 h -3 v -1 h 2 v -22 m 8,22 h 2 v -10 h 8 v 1 h -7 v 10 h -3 v -1 m 2,-20 h 8 v 1 h -7 v 7 h -1 v -8 m 8,20 h 2 v -22 h 1 v 23 h -3 v -1 m 10,0 h 2 v -20 h 7 v 1 h -6 v 20 h -3 v -1 m 9,0 h 2 v -20 h 7 v 1 h -6 v 20 h -3 v -1 m 9,0 h 2 v -22 h 1 v 23 h -3 v -1 m 10,0 h 12 v -22 h 1 v 23 h -13 v -1 m 2,-20 h 8 v 1 h -7 v 7 h -1 v -8 m 0,10 h 8 v 1 h -7 v 7 h -1 v -8 m 18,10 h 10 v -2 h 1 v 3 h -11 v -1 m 2,-20 h 8 v -2 h 1 v 3 h -8 v 7 h -1 v -8 m 0,10 h 8 v -2 h 1 v 3 h -8 v 7 h -1 v -8 m 16,10 h 2 v -10 h 8 v 1 h -7 v 10 h -3 v -1 m 2,-20 h 8 v 1 h -7 v 7 h -1 v -8 m 8,20 h 2 v -22 h 1 v 23 h -3 v -1 m 10,-10 h 8 v 1 h -8 v -1 m 0,10 h 10 v -12 h 1 v 13 h -11 v -1 m 2,-20 h 8 v -2 h 1 v 3 h -8 v 7 h -1 v -8 m 16,20 h 12 v -22 h 1 v 23 h -13 v -1 m 2,-20 h 8 v 1 h -7 v 17 h -1 v -18 m 18,20 h 10 v -2 h 1 v 3 h -11 v -1 m 2,-20 h 8 v -2 h 1 v 3 h -8 v 7 h -1 v -8 m 0,10 h 8 v -2 h 1 v 3 h -8 v 7 h -1 v -8 m 16,0 h 8 v 1 h -8 v -1 m 0,10 h 10 v -12 h 1 v 13 h -11 v -1 m 2,-20 h 8 v -2 h 1 v 3 h -8 v 7 h -1 v -8 m 16,20 h 2 v -22 h 1 v 23 h -3 v -1 m 10,0 h 12 v -12 h 1 v 13 h -13 v -1 m 2,-20 h 10 v -2 h 1 v 3 h -10 v 17 h -1 v -18 m 18,20 h 2 v -20 h 8 v 1 h -7 v 20 h -3 v -1 m 10,0 h 2 v -22 h 1 v 23 h -3 v -1 m 3,-23" fill="#666" />
</svg>
