<?xml version="1.0" standalone="no"?>
<svg xmlns="http://www.w3.org/2000/svg" version="1.1" width="16" height="16">
  <path fill="#741" d="m 2,0 h 4 v 1 h 1 v 1 h 1 v 1 h 1 v 1 h 1 v 1 h 1 v 1 h 1 v 1 h 1 v 1 h 1 v 1 h 1 v 1 h 1 v 1 h -1 v 1 h -1 v 1 h -1 v 1 h -1 v 1 h -1 v 1 h -1 v -1 h -1 v -1 h -1 v -1 h -1 v -1 h -1 v -1 h -1 v -1 h -1 v -1 h -1 v -1 h -1 v -1 h -1 v -1 h -1 v -4 h 2 v -2" />
  <path fill="#feb" d="m 1,1 h 5 v 1 h 1 v 1 h 1 v 1 h 1 v 1 h 1 v 1 h 1 v 1 h 1 v 1 h 1 v 1 h 1 v 1 h 1 v 1 h -1 v 1 h -1 v 1 h -1 v 1 h -1 v 1 h -1 v -1 h -1 v -1 h -1 v -1 h -1 v -1 h -1 v -1 h -1 v -1 h -1 v -1 h -1 v -1 h -1 v -1 h -1 v -5" />
  <path fill="#c93" d="m 6,5 h 1 v 1 h 1 v 1 h 1 v 1 h 1 v 1 h 1 v 1 h 1 v 1 h -1 v 1 h -1 v -1 h -1 v -1 h -1 v -1 h -1 v -1 h -1 v -1 h -1 v -1 h 1 v -1" />
  <path fill="#fff" d="m 3,2 h 1 v 3 h -1 v -3 m -1,1 h 3 v 1 h -3 v -1" />
  <path fill="#333" d="m 0,0 h 1 v 2 h 2 v 2 h 1 v -1 h -2 v -2 h -2 v -1" />
</svg>
